<?xml version="1.0" encoding="utf-8"?>
<!-- Generator: Adobe Illustrator 23.1.1, SVG Export Plug-In . SVG Version: 6.00 Build 0)  -->
<svg version="1.1" id="Layer_1" xmlns="http://www.w3.org/2000/svg" xmlns:xlink="http://www.w3.org/1999/xlink" x="0px" y="0px"
	 viewBox="0 0 114 71" style="enable-background:new 0 0 114 71;" xml:space="preserve">
<style type="text/css">
	.st0{fill:url(#path319_1_);}
	.st1{fill:none;stroke:#425662;stroke-width:0.174;}
	.st2{fill:url(#path355_1_);}
	.st3{fill:none;stroke:#FFFFFF;stroke-width:0.174;}
	.st4{fill:url(#path393_1_);}
	.st5{fill:url(#path429_1_);}
	.st6{fill:#142733;}
</style>
<g>
	<g id="g289" transform="matrix(3.3216098,0,0,-3.3216098,-148.39854,2840.6482)">
		<g id="g291">
			<g id="g297">
				
					<linearGradient id="path319_1_" gradientUnits="userSpaceOnUse" x1="-63.7691" y1="754.0226" x2="-63.3926" y2="754.0226" gradientTransform="matrix(4.4749 -102.9201 -102.9201 -4.4749 77951.2031 -2337.4575)">
					<stop  offset="0" style="stop-color:#C1CCD3"/>
					<stop  offset="0.1286" style="stop-color:#FFFFFF"/>
					<stop  offset="0.1286" style="stop-color:#FFFFFF"/>
					<stop  offset="0.3444" style="stop-color:#8F9EAA"/>
					<stop  offset="0.5685" style="stop-color:#B1BDC6"/>
					<stop  offset="0.7718" style="stop-color:#C8D2D9"/>
					<stop  offset="0.8714" style="stop-color:#CAD3DA"/>
					<stop  offset="0.9627" style="stop-color:#5F717E"/>
					<stop  offset="1" style="stop-color:#5F717E"/>
				</linearGradient>
				<path id="path319" class="st0" d="M61.8,852.3c-4.7,0-7.4-2.4-7.4-2.4s0.3-8.9,7.4-13.5l0,0l0,0c7.1,4.6,7.4,13.5,7.4,13.5
					S66.5,852.3,61.8,852.3"/>
			</g>
		</g>
	</g>
	<g id="g321" transform="matrix(3.3216098,0,0,-3.3216098,77.138764,307.72484)">
		<path id="path323" class="st1" d="M-6.1,89.7c-4.7,0-7.4-2.4-7.4-2.4s0.3-8.9,7.4-13.5l0,0l0,0c7.1,4.6,7.4,13.5,7.4,13.5
			S-1.4,89.7-6.1,89.7z"/>
	</g>
	<g id="g325" transform="matrix(3.3216098,0,0,-3.3216098,-148.39854,2840.6482)">
		<g id="g327">
			<g id="g333">
				
					<linearGradient id="path355_1_" gradientUnits="userSpaceOnUse" x1="-65.444" y1="755.0549" x2="-65.0675" y2="755.0549" gradientTransform="matrix(-95.762 89.4975 89.4975 95.762 -73774.8828 -65607.5703)">
					<stop  offset="0" style="stop-color:#A0AFB9"/>
					<stop  offset="8.713701e-02" style="stop-color:#B3BEC8"/>
					<stop  offset="8.713701e-02" style="stop-color:#B3BEC8"/>
					<stop  offset="0.1286" style="stop-color:#FFFFFF"/>
					<stop  offset="0.2739" style="stop-color:#778895"/>
					<stop  offset="0.5311" style="stop-color:#647784"/>
					<stop  offset="0.6763" style="stop-color:#CAD3DA"/>
					<stop  offset="0.8483" style="stop-color:#5F717E"/>
					<stop  offset="1" style="stop-color:#425662"/>
				</linearGradient>
				<path id="path355" class="st2" d="M69,849.7c0,0-2.7,2.3-7.2,2.3c-4.5,0-7.2-2.3-7.2-2.3s0.3-8.6,7.1-13l0,0l0,0
					C68.7,841.1,69,849.7,69,849.7"/>
			</g>
		</g>
	</g>
	<g id="g357" transform="matrix(3.3216098,0,0,-3.3216098,140.29585,330.40147)">
		<path id="path359" class="st3" d="M-17.9,94c0,0-2.7,2.3-7.2,2.3c-4.5,0-7.2-2.3-7.2-2.3s0.3-8.6,7.1-13l0,0l0,0
			C-18.2,85.4-17.9,94-17.9,94z"/>
	</g>
	<g id="g361" transform="matrix(3.3216098,0,0,-3.3216098,-148.39854,2840.6482)">
		<g id="g363">
			<g id="g369">
				
					<linearGradient id="path393_1_" gradientUnits="userSpaceOnUse" x1="-64.8144" y1="755.5719" x2="-64.4378" y2="755.5719" gradientTransform="matrix(31.5789 176.414 176.414 -31.5789 -131187.3906 36130.0859)">
					<stop  offset="0" style="stop-color:#A7B4BF"/>
					<stop  offset="0.2303" style="stop-color:#445764"/>
					<stop  offset="0.2978" style="stop-color:#778895"/>
					<stop  offset="0.3596" style="stop-color:#586B78"/>
					<stop  offset="0.4551" style="stop-color:#3D505C"/>
					<stop  offset="0.5674" style="stop-color:#81929E"/>
					<stop  offset="0.691" style="stop-color:#E9ECF0"/>
					<stop  offset="0.7978" style="stop-color:#AAB7C1"/>
					<stop  offset="0.9101" style="stop-color:#617380"/>
					<stop  offset="1" style="stop-color:#ADB9C3"/>
				</linearGradient>
				<path id="path393" class="st4" d="M68.6,850.3c0,0-2.5,2.2-6.7,2.2c-4.2,0-6.7-2.2-6.7-2.2s0.3-8.1,6.7-12.2l0,0l0,0
					C68.3,842.2,68.6,850.3,68.6,850.3"/>
			</g>
		</g>
	</g>
	<g id="g395" transform="matrix(3.3216098,0,0,-3.3216098,136.5524,325.53531)">
		<path id="path397" class="st1" d="M-17.2,93.1c0,0-2.5,2.2-6.7,2.2c-4.2,0-6.7-2.2-6.7-2.2s0.3-8.1,6.7-12.2l0,0l0,0
			C-17.5,85-17.2,93.1-17.2,93.1z"/>
	</g>
	<g id="g399" transform="matrix(3.3216098,0,0,-3.3216098,-148.39854,2840.6482)">
		<g id="g401">
			<g id="g407">
				
					<linearGradient id="path429_1_" gradientUnits="userSpaceOnUse" x1="-63.7561" y1="755.5199" x2="-63.3796" y2="755.5199" gradientTransform="matrix(125.1881 -0.6092 -0.6092 -125.1881 8499.375 95388.6875)">
					<stop  offset="0" style="stop-color:#D0D9DF"/>
					<stop  offset="0.1831" style="stop-color:#FFFFFF"/>
					<stop  offset="0.1831" style="stop-color:#FFFFFF"/>
					<stop  offset="0.3146" style="stop-color:#BCC7D0"/>
					<stop  offset="0.5775" style="stop-color:#B9C4CC"/>
					<stop  offset="0.7718" style="stop-color:#C5CFD7"/>
					<stop  offset="0.8714" style="stop-color:#CAD3DA"/>
					<stop  offset="0.9859" style="stop-color:#A0AFB9"/>
					<stop  offset="1" style="stop-color:#A0AFB9"/>
				</linearGradient>
				<path id="path429" class="st5" d="M68.6,850.4c0,0-2.5,2.2-6.7,2.2c-4.2,0-6.7-2.2-6.7-2.2s0.3-8.1,6.7-12.2l0,0l0,0
					C68.3,842.4,68.6,850.4,68.6,850.4"/>
			</g>
		</g>
	</g>
	<g id="g431" transform="matrix(3.3216098,0,0,-3.3216098,136.5524,323.9044)">
		<path id="path433" class="st1" d="M-17.2,92.8c0,0-2.5,2.2-6.7,2.2c-4.2,0-6.7-2.2-6.7-2.2s0.3-8.1,6.7-12.2l0,0l0,0
			C-17.5,84.7-17.2,92.8-17.2,92.8z"/>
	</g>
	<g id="g435" transform="matrix(3.3216098,0,0,-3.3216098,77.105548,346.18576)">
		<path id="path437" class="st6" d="M-6.1,96.9c-4,0-5.5-0.7-5.5-0.7l0.3-0.4c0,0,2.1,0.7,5.1,0.6c0,0,0,0,0,0c0,0,0,0,0,0
			c0,0,0,0,0,0c0,0,0,0,0,0c3,0.1,5.1-0.6,5.1-0.6l0.3,0.4C-0.6,96.3-2.1,96.9-6.1,96.9z M-5.5,96l-0.6-0.7L-6.6,96
			c0,0-2.9,0.1-4.3-0.5c0.3-0.3,0.8-0.6,1.4-0.9c0,0.3,0.2,0.7,1.9,0.7l1.7-7.5l0,0l0,0l1.7,7.5c1.7,0,1.8-0.5,1.9-0.7
			c0.6,0.2,1.1,0.5,1.4,0.9C-2.6,96-5.5,96-5.5,96"/>
	</g>
	<g id="g439" transform="matrix(3.3216098,0,0,-3.3216098,116.05142,331.83973)">
		<path id="path441" class="st6" d="M-13.3,94.3h-0.3v-0.8h0.3v0.5h1.1v-0.5h0.3v0.8L-13.3,94.3L-13.3,94.3z M-18.1,94.5h1
			c0.2,0,0.3,0.2,0.3,0.3h-1.6v-0.8h1.4v-0.2h-1.1c-0.2-0.1-0.3-0.2-0.3-0.3l0,0h1.7v0.8h-1.4V94.5z M-15.6,93.7v1h-0.3v-1.3h1.3v0
			c0.1,0.1,0.3,0.2,0.3,0.3L-15.6,93.7z M-13.3,94.5h1.1c0.2,0.1,0.3,0.2,0.3,0.3h-1.8C-13.6,94.6-13.5,94.5-13.3,94.5z M-20.8,94.5
			h1.1c0.2,0.1,0.3,0.2,0.3,0.3h-1.8C-21,94.6-20.9,94.5-20.8,94.5z M-20.8,93.4h1.1c0.2,0.1,0.3,0.2,0.3,0.3h-1.8
			C-21,93.6-20.9,93.5-20.8,93.4z M-23.7,94.8c0-0.1,0.1-0.2,0.3-0.3h0.5l0,0v-1h0.3v1l0,0h0.5c0.2,0.1,0.3,0.2,0.3,0.3v0
			L-23.7,94.8L-23.7,94.8z M-20.8,93.9h1.1c0.2,0.1,0.3,0.2,0.3,0.3h-1.8C-21,94.1-20.9,94-20.8,93.9"/>
	</g>
</g>
</svg>
